<svg width="486" height="115" viewBox="0 0 486 115" fill="none" xmlns="http://www.w3.org/2000/svg">
<mask id="mask0_48_2" style="mask-type:luminance" maskUnits="userSpaceOnUse" x="0" y="0" width="486" height="115">
<path d="M485.234 0.401245H0V114.815H485.234V0.401245Z" fill="white"/>
</mask>
<g mask="url(#mask0_48_2)">
<path d="M238.029 45.8214L245.979 38.4963L243.487 36.0579C240.547 33.088 237.062 30.653 233.202 28.8726C229.143 27.2057 224.751 26.3976 220.331 26.5043C214.6 26.4607 208.965 27.9013 204.031 30.6715C199.237 33.3636 195.253 37.1838 192.464 41.7641C189.622 46.3554 188.129 51.5874 188.142 56.9141C188.063 62.443 189.533 67.8923 192.4 72.7036C195.149 77.2863 199.121 81.0987 203.915 83.7561C208.749 86.4209 214.248 87.8015 219.836 87.7535C224.326 87.8164 228.781 86.9929 232.918 85.3352C236.945 83.6147 240.552 81.1168 243.508 78L245.895 75.5317L237.766 68.2065L235.316 70.9147C233.454 73.097 231.09 74.845 228.407 76.0247C225.724 77.2044 222.792 77.7843 219.836 77.7202C216.193 77.7328 212.611 76.8229 209.46 75.0841C206.309 73.3453 203.702 70.8403 201.907 67.8268C199.972 64.557 198.996 60.8542 199.078 57.1039C199.055 53.5212 200.07 50.0016 202.012 46.9307C203.922 43.7823 206.648 41.1506 209.93 39.2857C213.045 37.4448 216.642 36.475 220.31 36.4876C223.797 36.3537 227.25 37.187 230.247 38.886C232.173 40.0993 233.939 41.5287 235.505 43.1432L238.029 45.8214Z" fill="#0E497A"/>
<path d="M343.953 41.7941C347.812 39.3158 353.165 38.7961 356.688 40.6249C358.496 41.5543 360.41 42.6236 361.83 43.453V31.5509L359.264 30.5516C356.058 29.1906 352.559 28.5716 349.053 28.7453C345.547 28.919 342.134 29.8805 339.094 31.5509L336.907 32.8V28.8027H324.751V89.1626H336.907V54.5756C336.893 52.0169 337.563 49.4965 338.853 47.2505C340.049 45.0573 341.802 43.182 343.953 41.7941Z" fill="#0E497A"/>
<path d="M431.668 87.903V27.5031H419.49V32.8996L417.25 31.5005C416.903 31.2707 416.556 31.0608 416.199 30.8509C411.151 27.8573 405.323 26.2649 399.373 26.254C393.617 26.2393 387.965 27.722 383.032 30.5412C378.089 33.3529 373.998 37.334 371.158 42.0962C368.317 46.8585 366.824 52.2391 366.824 57.7131C366.824 63.1871 368.317 68.5677 371.158 73.3299C373.998 78.0921 378.089 82.0733 383.032 84.885C388.002 87.7224 393.698 89.2054 399.496 89.172C405.294 89.1385 410.971 87.5897 415.904 84.6952C416.367 84.4253 416.819 84.1554 417.261 83.8657L419.49 82.4666V87.933L431.668 87.903ZM416.945 67.8363C415.175 70.8799 412.611 73.4401 409.5 75.2713C406.525 77.0682 403.067 78.012 399.542 77.9896C395.968 78.0071 392.463 77.0573 389.436 75.2514C386.25 73.4209 383.606 70.8524 381.749 67.7864C379.873 64.7777 378.895 61.3402 378.92 57.843C378.901 54.3295 379.882 50.8766 381.759 47.8496C383.607 44.7491 386.242 42.138 389.425 40.2546C392.407 38.4442 395.868 37.4772 399.406 37.4666C402.944 37.4559 406.412 38.4022 409.406 40.1947C412.543 42.0472 415.131 44.6305 416.924 47.6998C418.749 50.774 419.712 54.2421 419.721 57.7715C419.73 61.3009 418.785 64.7735 416.977 67.8564L416.945 67.8363Z" fill="#0E497A"/>
<path d="M159.652 52.7863L153.237 51.1773C143.573 48.8188 142.721 46.1106 142.721 43.5323C142.721 37.5363 149.031 35.4077 154.531 35.4077C161.24 35.4077 165.783 38.4057 166.687 43.5524L166.929 44.9014H177.823L177.708 43.1826C177.024 33.0094 167.381 25.6342 154.783 25.6342C141.112 25.6342 131.501 33.0893 131.501 43.7722C131.501 55.3745 140.639 59.0521 148.589 60.9708L156.455 62.9094C166.088 65.2079 167.392 68.5058 167.392 71.4338C167.392 76.2006 161.986 79.7982 154.773 79.7982C146.928 79.7982 141.554 76.5204 140.744 71.244L140.534 69.8648H129.619L129.755 71.5937C130.618 82.3765 140.408 89.5818 154.121 89.5818C169.011 89.5818 178.623 82.0967 178.623 70.5244C178.623 58.9521 169.505 55.1347 159.652 52.7863Z" fill="#0E497A"/>
<path d="M299.608 30.2212C294.726 27.442 289.141 25.9741 283.45 25.9741C277.759 25.9741 272.175 27.442 267.292 30.2212C262.52 32.9921 258.591 36.8981 255.893 41.5536C253.121 46.2432 251.672 51.5344 251.687 56.9134C251.653 62.3252 253.06 67.6572 255.778 72.4132C258.449 77.1311 262.376 81.1006 267.166 83.9255C272.102 86.7811 277.765 88.3016 283.543 88.3227C289.321 88.3438 294.996 86.8649 299.955 84.0454C304.683 81.2485 308.53 77.2923 311.091 72.593C313.736 67.7521 315.091 62.3679 315.035 56.9134C315.062 51.552 313.65 46.2725 310.933 41.5736C308.276 36.9076 304.369 32.9914 299.608 30.2212ZM300.396 67.2765C298.774 70.2418 296.349 72.7427 293.372 74.5217C290.464 76.2895 287.075 77.2101 283.624 77.1699C280.11 77.2172 276.658 76.2938 273.686 74.5118C270.657 72.7198 268.17 70.209 266.472 67.2266C264.693 64.1696 263.78 60.7262 263.822 57.2332C263.795 53.7407 264.711 50.2999 266.483 47.2398C268.178 44.2203 270.667 41.6692 273.707 39.8348C276.636 38.0885 280.024 37.1622 283.482 37.1622C286.939 37.1622 290.327 38.0885 293.256 39.8348C296.255 41.6382 298.7 44.1614 300.344 47.1499C302.1 50.2393 303.001 53.7021 302.962 57.2132C302.99 60.7207 302.098 64.1794 300.365 67.2765H300.396Z" fill="#0E497A"/>
<path d="M9.79968 80.0973L36.539 105.508C49.6066 117.926 70.7932 117.926 83.8608 105.508L110.6 80.0973C123.667 67.6792 123.667 47.5452 110.6 35.127L83.8608 9.71632C70.7932 -2.70192 49.6065 -2.7019 36.539 9.71632L9.79968 35.127C-3.26786 47.5452 -3.26786 67.6792 9.79968 80.0973Z" fill="#0E497A"/>
<path d="M81.9289 41.7539C84.4394 46.3409 85.3306 51.5738 84.4709 56.6791C83.6111 61.7845 81.046 66.4917 77.1546 70.1051C75.404 71.7325 74.0159 73.678 73.0728 75.8257C72.1298 77.9735 71.6511 80.2796 71.6653 82.6068V83.8259C78.3158 81.4905 84.0464 77.2624 88.0756 71.7184C92.1047 66.1743 94.2364 59.5842 94.1798 52.8466C94.1919 47.3637 92.7758 41.9633 90.0576 37.127L81.9289 41.7539Z" fill="#F1F8FD"/>
<path d="M60.1615 20.128V29.2619C56.3575 29.3091 52.6211 30.2242 49.267 31.9301L44.5664 24.0154C49.3459 21.5126 54.7046 20.1769 60.1615 20.128Z" fill="#F8A73A"/>
<path d="M57.626 85.545C58.5829 85.625 59.5504 85.6749 60.5389 85.6749C61.5274 85.6749 62.4843 85.6749 63.4413 85.545H57.626Z" fill="white"/>
<path d="M80.8767 40.1048C78.9867 37.2628 76.4764 34.8397 73.5156 32.9995L78.2162 25.0848C82.6113 27.7299 86.3153 31.2908 89.0476 35.4979L80.8767 40.1048Z" fill="#F15A24"/>
<path d="M48.3947 81.6475C48.4241 77.1595 46.6137 72.8369 43.347 69.5956C39.6695 65.9697 37.2799 61.3399 36.5142 56.3568C35.7484 51.3738 36.6448 46.2879 39.0776 41.8141L30.9488 37.2471C28.2518 42.0646 26.8467 47.4398 26.8581 52.8966C26.815 59.4555 28.8447 65.8756 32.6844 71.3258C36.5241 76.776 41.997 81.0054 48.3947 83.4663V81.6475Z" fill="#F1F8FD"/>
<path d="M47.502 32.9299C44.5428 34.7721 42.0329 37.1947 40.1408 40.0352L31.9805 35.4982C34.703 31.2764 38.404 27.7012 42.8014 25.0452L47.502 32.9299Z" fill="#F9D187"/>
<path d="M71.8347 31.9899C68.8627 30.4533 65.5773 29.5433 62.2021 29.3216V20.1677C67.2316 20.4104 72.1353 21.7472 76.5353 24.0751L71.8347 31.9899Z" fill="#EF8127"/>
<path d="M71.6977 87.4232H48.3945V89.4119H71.6977V87.4232Z" fill="white"/>
<path d="M71.6977 91.441H48.3945V93.4296H71.6977V91.441Z" fill="white"/>
<path d="M71.6977 83.6761H48.3945V85.6747H71.6977V83.6761Z" fill="white"/>
<path d="M59.7727 95.5284H68.869C68.869 98.2062 64.7678 100.405 59.7727 100.405C54.7777 100.405 50.666 98.2062 50.666 95.5284H59.7727Z" fill="white"/>
<path d="M449.934 24.6766C448.794 24.6766 447.735 24.4841 446.758 24.0991C445.781 23.6884 444.926 23.1366 444.193 22.4436C443.487 21.7249 442.917 20.8907 442.483 19.941C442.076 18.9657 441.872 17.9005 441.872 16.7455C441.872 15.5905 442.076 14.5382 442.483 13.5884C442.917 12.6131 443.487 11.7789 444.193 11.0859C444.926 10.3672 445.781 9.81541 446.758 9.4304C447.735 9.01973 448.794 8.81439 449.934 8.81439C451.074 8.81439 452.133 9.01973 453.11 9.4304C454.087 9.81541 454.929 10.3672 455.634 11.0859C456.367 11.7789 456.937 12.6131 457.345 13.5884C457.779 14.5382 457.996 15.5905 457.996 16.7455C457.996 17.9005 457.779 18.9657 457.345 19.941C456.937 20.8907 456.367 21.7249 455.634 22.4436C454.929 23.1366 454.087 23.6884 453.11 24.0991C452.133 24.4841 451.074 24.6766 449.934 24.6766ZM449.934 23.4831C450.911 23.4831 451.807 23.3163 452.621 22.9826C453.436 22.6489 454.141 22.1997 454.739 21.635C455.336 21.0447 455.797 20.3646 456.123 19.5945C456.449 18.8245 456.612 18.016 456.612 17.169V16.322C456.612 15.4749 456.449 14.6665 456.123 13.8965C455.797 13.1264 455.336 12.4591 454.739 11.8944C454.141 11.3041 453.436 10.8421 452.621 10.5084C451.807 10.1747 450.911 10.0079 449.934 10.0079C448.957 10.0079 448.061 10.1747 447.247 10.5084C446.432 10.8421 445.727 11.3041 445.13 11.8944C444.532 12.4591 444.071 13.1264 443.745 13.8965C443.419 14.6665 443.257 15.4749 443.257 16.322V17.169C443.257 18.016 443.419 18.8245 443.745 19.5945C444.071 20.3646 444.532 21.0447 445.13 21.635C445.727 22.1997 446.432 22.6489 447.247 22.9826C448.061 23.3163 448.957 23.4831 449.934 23.4831ZM448.305 20.9035H447.043V12.78H450.545C451.359 12.78 451.997 12.9981 452.459 13.4345C452.92 13.8451 453.151 14.4355 453.151 15.2054C453.151 15.8728 452.988 16.3989 452.662 16.784C452.336 17.1433 451.929 17.3872 451.441 17.5155L453.476 20.9035H452.092L450.178 17.631H448.305V20.9035ZM450.504 16.6685C451.373 16.6685 451.807 16.2963 451.807 15.552V14.936C451.807 14.166 451.373 13.7809 450.504 13.7809H448.305V16.6685H450.504Z" fill="#0E497A"/>
</g>
</svg>
