<svg width="486" height="121" viewBox="0 0 486 121" fill="none" xmlns="http://www.w3.org/2000/svg">
<mask id="mask0_77_173" style="mask-type:luminance" maskUnits="userSpaceOnUse" x="0" y="0" width="486" height="121">
<path d="M485.234 0H0V121H485.234V0Z" fill="white"/>
</mask>
<g mask="url(#mask0_77_173)">
<path d="M238.028 48.0347L245.978 40.2879L243.486 37.7092C240.546 34.5683 237.061 31.9931 233.201 30.1103C229.142 28.3474 224.75 27.4928 220.33 27.6056C214.599 27.5595 208.964 29.083 204.03 32.0127C199.236 34.8598 195.252 38.8999 192.463 43.7438C189.621 48.5994 188.128 54.1326 188.141 59.7659C188.062 65.6131 189.532 71.3761 192.399 76.4643C195.148 81.3108 199.12 85.3427 203.914 88.1531C208.748 90.9712 214.247 92.4313 219.835 92.3806C224.325 92.4471 228.78 91.5762 232.917 89.823C236.944 88.0035 240.551 85.3618 243.507 82.0656L245.894 79.4552L237.765 71.7084L235.315 74.5725C233.453 76.8804 231.089 78.729 228.406 79.9766C225.723 81.2242 222.791 81.8375 219.835 81.7697C216.192 81.783 212.61 80.8207 209.459 78.9819C206.308 77.143 203.701 74.4938 201.906 71.3068C199.971 67.8488 198.995 63.9328 199.077 59.9667C199.054 56.1777 200.069 52.4555 202.011 49.2078C203.921 45.8782 206.647 43.095 209.929 41.1228C213.044 39.1759 216.641 38.1503 220.309 38.1636C223.796 38.022 227.249 38.9033 230.246 40.7001C232.172 41.9832 233.938 43.4949 235.504 45.2023L238.028 48.0347Z" fill="white"/>
<path d="M343.953 43.7756C347.812 41.1546 353.165 40.605 356.688 42.5391C358.496 43.522 360.41 44.6528 361.83 45.53V32.9428L359.264 31.8859C356.058 30.4466 352.559 29.7919 349.053 29.9756C345.547 30.1593 342.134 31.1762 339.095 32.9428L336.907 34.2638V30.0364H324.751V93.8708H336.907V57.2928C336.893 54.5868 337.563 51.9214 338.853 49.5461C340.049 47.2266 341.802 45.2434 343.953 43.7756Z" fill="white"/>
<path d="M431.668 92.5387V28.662H419.49V34.3691L417.25 32.8895C416.903 32.6464 416.556 32.4244 416.199 32.2025C411.151 29.0365 405.323 27.3525 399.373 27.3409C393.617 27.3254 387.965 28.8934 383.032 31.8749C378.089 34.8485 373.998 39.0588 371.158 44.0951C368.317 49.1315 366.824 54.8218 366.824 60.6109C366.824 66.4001 368.317 72.0904 371.158 77.1267C373.998 82.163 378.089 86.3734 383.032 89.347C388.002 92.3477 393.698 93.9161 399.496 93.8807C405.294 93.8453 410.971 92.2074 415.904 89.1462C416.367 88.8608 416.819 88.5754 417.261 88.269L419.49 86.7894V92.5704L431.668 92.5387ZM416.945 71.3169C415.175 74.5357 412.611 77.2433 409.5 79.1799C406.525 81.0802 403.067 82.0783 399.542 82.0546C395.968 82.0731 392.463 81.0687 389.436 79.1588C386.25 77.2229 383.606 74.5066 381.749 71.2641C379.873 68.0822 378.895 64.4468 378.92 60.7483C378.901 57.0326 379.882 53.3809 381.759 50.1797C383.607 46.9007 386.242 44.1393 389.425 42.1475C392.407 40.2329 395.868 39.2102 399.406 39.199C402.944 39.1877 406.412 40.1884 409.406 42.0841C412.543 44.0433 415.131 46.7753 416.924 50.0212C418.749 53.2724 419.712 56.9401 419.721 60.6727C419.73 64.4053 418.785 68.0778 416.977 71.3381L416.945 71.3169Z" fill="white"/>
<path d="M159.652 55.4005L153.237 53.6989C143.573 51.2047 142.721 48.3406 142.721 45.6139C142.721 39.2727 149.031 37.0216 154.531 37.0216C161.24 37.0216 165.783 40.1922 166.687 45.6351L166.929 47.0618H177.823L177.708 45.244C177.024 34.4852 167.381 26.6855 154.783 26.6855C141.112 26.6855 131.501 34.5697 131.501 45.8676C131.501 58.1377 140.639 62.027 148.589 64.0562L156.455 66.1064C166.088 68.5372 167.392 72.0249 167.392 75.1215C167.392 80.1627 161.986 83.9674 154.773 83.9674C146.928 83.9674 141.554 80.5009 140.744 74.9207L140.534 73.4622H129.619L129.755 75.2906C130.618 86.6941 140.408 94.3141 154.121 94.3141C169.011 94.3141 178.623 86.3982 178.623 74.1597C178.623 61.9213 169.505 57.8841 159.652 55.4005Z" fill="white"/>
<path d="M299.608 31.5365C294.726 28.5973 289.141 27.0449 283.45 27.0449C277.759 27.0449 272.175 28.5973 267.292 31.5365C262.52 34.4669 258.591 38.5978 255.893 43.5213C253.121 48.4808 251.672 54.0766 251.687 59.7652C251.653 65.4885 253.06 71.1275 255.778 76.1572C258.449 81.1467 262.376 85.3447 267.166 88.3322C272.102 91.3522 277.765 92.9602 283.543 92.9826C289.321 93.0049 294.996 91.4408 299.955 88.459C304.683 85.5011 308.53 81.3172 311.091 76.3474C313.736 71.2278 315.091 65.5337 315.035 59.7652C315.062 54.0952 313.65 48.5118 310.933 43.5424C308.276 38.6078 304.369 34.4662 299.608 31.5365ZM300.396 70.7249C298.774 73.8609 296.349 76.5057 293.372 78.3871C290.464 80.2567 287.075 81.2303 283.624 81.1878C280.11 81.2378 276.658 80.2612 273.686 78.3766C270.657 76.4815 268.17 73.8262 266.472 70.6721C264.693 67.4391 263.78 63.7975 263.822 60.1034C263.795 56.4099 264.711 52.771 266.483 49.5348C268.178 46.3415 270.667 43.6435 273.707 41.7035C276.636 39.8567 280.024 38.8771 283.482 38.8771C286.939 38.8771 290.327 39.8567 293.256 41.7035C296.255 43.6107 298.7 46.2792 300.344 49.4397C302.1 52.7069 303.001 56.3691 302.962 60.0823C302.99 63.7917 302.098 67.4495 300.365 70.7249H300.396Z" fill="white"/>
<path d="M9.79968 84.2836L36.539 111.157C49.6066 124.29 70.7932 124.29 83.8608 111.157L110.6 84.2836C123.667 71.1506 123.667 49.8577 110.6 36.7246L83.8608 9.8512C70.7932 -3.28187 49.6066 -3.28185 36.539 9.85121L9.79968 36.7246C-3.26786 49.8577 -3.26787 71.1506 9.79968 84.2836Z" fill="white"/>
<path d="M81.9289 43.7331C84.4394 48.5841 85.3306 54.1182 84.4709 59.5174C83.6111 64.9167 81.0461 69.8949 77.1546 73.7163C75.404 75.4373 74.0159 77.4948 73.0728 79.7662C72.1298 82.0376 71.6511 84.4764 71.6653 86.9376V88.2269C78.3158 85.757 84.0464 81.2856 88.0756 75.4224C92.1048 69.5592 94.2365 62.5897 94.1798 55.4643C94.1919 49.6658 92.7757 43.9545 90.0576 38.8398L81.9289 43.7331Z" fill="#0E497A"/>
<path d="M60.1614 20.8623V30.522C56.3575 30.5719 52.6211 31.5397 49.267 33.3438L44.5664 24.9735C49.3459 22.3266 54.7046 20.914 60.1614 20.8623Z" fill="#F8A73A"/>
<path d="M57.626 90.0449C58.5829 90.1295 59.5504 90.1823 60.5389 90.1823C61.5274 90.1823 62.4843 90.1823 63.4413 90.0449H57.626Z" fill="white"/>
<path d="M80.8767 41.9891C78.9868 38.9835 76.4764 36.4209 73.5156 34.4748L78.2162 26.1045C82.6113 28.9018 86.3153 32.6677 89.0476 37.117L80.8767 41.9891Z" fill="#F15A24"/>
<path d="M48.3947 85.9231C48.4241 81.1767 46.6137 76.6053 43.347 73.1774C39.6695 69.3428 37.2799 64.4465 36.5141 59.1766C35.7484 53.9067 36.6448 48.5281 39.0776 43.7967L30.9488 38.9668C28.2517 44.0616 26.8467 49.7463 26.8581 55.5172C26.815 62.4536 28.8447 69.2433 32.6844 75.0072C36.5241 80.7712 41.997 85.244 48.3947 87.8466V85.9231Z" fill="#0E497A"/>
<path d="M47.5019 34.4011C44.5428 36.3493 42.0328 38.9114 40.1408 41.9154L31.9805 37.1173C34.7029 32.6524 38.4039 28.8714 42.8013 26.0625L47.5019 34.4011Z" fill="#F9D187"/>
<path d="M71.8347 33.407C68.8627 31.782 65.5774 30.8196 62.2021 30.5851V20.9043C67.2316 21.1609 72.1353 22.5747 76.5353 25.0366L71.8347 33.407Z" fill="#EF8127"/>
<path d="M71.6977 92.0312H48.3945V94.1344H71.6977V92.0312Z" fill="#0E497A"/>
<path d="M71.6977 96.2803H48.3945V98.3834H71.6977V96.2803Z" fill="#0E497A"/>
<path d="M71.6977 88.0684H48.3945V90.1821H71.6977V88.0684Z" fill="#0E497A"/>
<path d="M59.7718 100.603H68.868C68.868 103.435 64.7668 105.76 59.7718 105.76C54.7767 105.76 50.665 103.435 50.665 100.603H59.7718Z" fill="#0E497A"/>
<path d="M449.934 25.6727C448.794 25.6727 447.735 25.4692 446.758 25.062C445.781 24.6277 444.926 24.0441 444.193 23.3112C443.487 22.5511 442.917 21.6689 442.483 20.6646C442.076 19.6331 441.872 18.5066 441.872 17.2851C441.872 16.0636 442.076 14.9507 442.483 13.9463C442.917 12.9148 443.487 12.0326 444.193 11.2997C444.926 10.5397 445.781 9.9561 446.758 9.54893C447.735 9.11462 448.794 8.89746 449.934 8.89746C451.074 8.89746 452.133 9.11462 453.11 9.54893C454.087 9.9561 454.929 10.5397 455.634 11.2997C456.367 12.0326 456.937 12.9148 457.345 13.9463C457.779 14.9507 457.996 16.0636 457.996 17.2851C457.996 18.5066 457.779 19.6331 457.345 20.6646C456.937 21.6689 456.367 22.5511 455.634 23.3112C454.929 24.0441 454.087 24.6277 453.11 25.062C452.133 25.4692 451.074 25.6727 449.934 25.6727ZM449.934 24.4105C450.911 24.4105 451.807 24.2341 452.621 23.8812C453.436 23.5283 454.141 23.0533 454.739 22.4561C455.336 21.8318 455.797 21.1125 456.123 20.2981C456.449 19.4838 456.612 18.6287 456.612 17.733V16.8372C456.612 15.9414 456.449 15.0864 456.123 14.2721C455.797 13.4577 455.336 12.752 454.739 12.1548C454.141 11.5305 453.436 11.0419 452.621 10.689C451.807 10.3361 450.911 10.1597 449.934 10.1597C448.957 10.1597 448.061 10.3361 447.247 10.689C446.432 11.0419 445.727 11.5305 445.13 12.1548C444.532 12.752 444.071 13.4577 443.745 14.2721C443.419 15.0864 443.257 15.9414 443.257 16.8372V17.733C443.257 18.6287 443.419 19.4838 443.745 20.2981C444.071 21.1125 444.532 21.8318 445.13 22.4561C445.727 23.0533 446.432 23.5283 447.247 23.8812C448.061 24.2341 448.957 24.4105 449.934 24.4105ZM448.305 21.6825H447.043V13.0913H450.545C451.359 13.0913 451.997 13.322 452.459 13.7835C452.92 14.2178 453.151 14.8421 453.151 15.6564C453.151 16.3622 452.988 16.9186 452.662 17.3258C452.336 17.7058 451.929 17.9637 451.441 18.0994L453.476 21.6825H452.092L450.178 18.2216H448.305V21.6825ZM450.504 17.2037C451.373 17.2037 451.807 16.8101 451.807 16.0229V15.3714C451.807 14.5571 451.373 14.1499 450.504 14.1499H448.305V17.2037H450.504Z" fill="white"/>
</g>
</svg>
